<svg width="78" height="64" viewBox="0 0 78 64" fill="none" xmlns="http://www.w3.org/2000/svg">
<path d="M0.610596 44.5885L31.6681 62.6646L76.1303 36.6556L45.0728 18.5794L0.610596 44.5885Z" fill="#7580E8"/>
<path d="M31.9529 61.584L1.76809 43.9131C2.38621 42.1161 2.34177 40.0142 1.63477 37.6073L31.6439 55.1186C31.6439 55.1186 32.1226 56.672 31.9529 61.584Z" fill="#F5F5F5"/>
<path d="M30.4319 53.1476C31.0978 53.5895 31.652 54.1836 32.0498 54.8822C32.4477 55.5807 32.6782 56.3641 32.7226 57.1693V61.8664C32.7226 63.3462 31.6924 63.9479 30.4319 63.2111L0.586426 45.7551V44.5885L30.1107 61.7805C30.8743 62.2226 31.4864 61.8664 31.4864 60.9761V56.6229C31.4612 56.1392 31.3234 55.6685 31.0843 55.2491C30.8453 54.8297 30.5116 54.4736 30.1107 54.2098L0.610671 37.0179V35.6978L30.4319 53.1476Z" fill="#263238"/>
<path d="M0.610596 35.6978L45.0728 9.68872L74.9123 27.1386C75.5791 27.5794 76.1341 28.1733 76.5321 28.872C76.9301 29.5708 77.1599 30.3547 77.2029 31.1603V35.8635C77.233 36.1513 77.1865 36.4421 77.0682 36.7055C76.95 36.969 76.7642 37.1956 76.5303 37.3617L32.0741 63.3707C32.306 63.203 32.4898 62.976 32.6069 62.7128C32.724 62.4496 32.7702 62.1597 32.7407 61.8726V57.1693C32.6982 56.3636 32.4685 55.5795 32.0705 54.8807C31.6725 54.1819 31.1173 53.5881 30.45 53.1476L0.610596 35.6978Z" fill="#7580E8"/>
<path d="M32.074 54.8791C32.4885 55.5713 32.7202 56.3601 32.7466 57.1693V61.8726C32.7761 62.1597 32.73 62.4496 32.6129 62.7128C32.4958 62.976 32.3119 63.203 32.08 63.3707L76.5362 37.3617C76.7701 37.1956 76.9559 36.969 77.0742 36.7055C77.1924 36.4421 77.239 36.1513 77.2089 35.8635V31.1603C77.1822 30.353 76.9505 29.5663 76.5362 28.8762L32.074 54.8791Z" fill="#37474F"/>
<path d="M10.6521 33.7391L35.3769 48.1067L76.2213 24.216L51.4965 9.84836L10.6521 33.7391Z" fill="#9854CB"/>
<path opacity="0.35" d="M10.6521 33.7391L35.3769 48.1067L76.2213 24.216L51.4965 9.84836L10.6521 33.7391Z" fill="#27104E"/>
<path d="M35.6557 47.0138L11.8035 33.0637C12.4297 31.2626 12.3873 29.1607 11.6763 26.7579L35.3769 40.5607C35.3769 40.5607 35.8254 42.0834 35.6557 47.0138Z" fill="#EBEBEB"/>
<path d="M35.6557 47.0138L11.8035 33.0637C12.4297 31.2626 12.3873 29.1607 11.6763 26.7579L35.3769 40.5607C35.3769 40.5607 35.8254 42.0834 35.6557 47.0138Z" fill="#F5F5F5"/>
<path d="M34.1588 38.5958C34.8267 39.0355 35.3825 39.6292 35.7806 40.3281C36.1787 41.0271 36.4079 41.8116 36.4495 42.6175V47.3146C36.4495 48.7944 35.4254 49.3961 34.1588 48.6532L10.6521 34.9057V33.7391L33.8437 47.2471C34.6012 47.6892 35.2133 47.3269 35.2133 46.4428V42.0895C35.1881 41.6059 35.0503 41.1351 34.8113 40.7157C34.5722 40.2964 34.2386 39.9402 33.8377 39.6765L10.6703 26.1685V24.8484L34.1588 38.5958Z" fill="#9854CB"/>
<path opacity="0.25" d="M34.1588 38.5958C34.8267 39.0355 35.3825 39.6292 35.7806 40.3281C36.1787 41.0271 36.4079 41.8116 36.4495 42.6175V47.3146C36.4495 48.7944 35.4254 49.3961 34.1588 48.6532L10.6521 34.9057V33.7391L33.8437 47.2471C34.6012 47.6892 35.2133 47.3269 35.2133 46.4428V42.0895C35.1881 41.6059 35.0503 41.1351 34.8113 40.7157C34.5722 40.2964 34.2386 39.9402 33.8377 39.6765L10.6703 26.1685V24.8484L34.1588 38.5958Z" fill="#27104E"/>
<path d="M10.6521 24.8484L51.4965 0.951508L75.0032 14.699C75.6691 15.1409 76.2233 15.735 76.6212 16.4335C77.019 17.132 77.2495 17.9154 77.2939 18.7207V23.4239C77.324 23.7117 77.2775 24.0025 77.1592 24.2659C77.0409 24.5294 76.8552 24.7559 76.6213 24.9221L35.7769 48.8189C36.0099 48.6505 36.1948 48.4227 36.3129 48.1585C36.4311 47.8943 36.4782 47.6032 36.4495 47.3147V42.6114C36.4065 41.8058 36.1767 41.0219 35.7787 40.3231C35.3807 39.6244 34.8257 39.0305 34.1588 38.5897L10.6521 24.8484Z" fill="#9854CB"/>
<path opacity="0.15" d="M35.7829 40.3274C36.1929 41.019 36.4223 41.8051 36.4495 42.6114V47.3147C36.4782 47.6032 36.4311 47.8944 36.3129 48.1585C36.1948 48.4227 36.0099 48.6505 35.7769 48.819L76.6213 24.9221C76.8552 24.756 77.0409 24.5294 77.1592 24.266C77.2775 24.0025 77.324 23.7118 77.2939 23.4239V18.7207C77.2643 17.9139 77.0328 17.1279 76.6213 16.4366L35.7829 40.3274Z" fill="#27104E"/>
</svg>
