<svg width="101" height="61" viewBox="0 0 101 61" fill="none" xmlns="http://www.w3.org/2000/svg">
<path d="M100.844 25.2938V26.3376C100.835 26.5172 100.785 26.6921 100.696 26.848C100.608 27.0038 100.484 27.1361 100.335 27.2341L43.1649 60.6787C43.0064 60.7573 42.8323 60.7982 42.6559 60.7982C42.4794 60.7982 42.3053 60.7573 42.1468 60.6787L1.19336 36.7327C1.04455 36.6347 0.920808 36.5024 0.832312 36.3465C0.743817 36.1907 0.693097 36.0158 0.684326 35.8362V34.7985C0.693097 34.619 0.743817 34.4441 0.832312 34.2882C0.920808 34.1324 1.04455 34.0001 1.19336 33.9021L58.3634 0.457534C58.5209 0.375646 58.6954 0.332947 58.8724 0.332947C59.0495 0.332947 59.224 0.375646 59.3815 0.457534L100.335 24.4035C100.483 24.5005 100.607 24.6318 100.695 24.7866C100.784 24.9414 100.835 25.1152 100.844 25.2938Z" fill="#9854CB"/>
<path opacity="0.4" d="M1.10795 33.9389C0.901912 34.1047 0.920089 34.338 1.18067 34.4854L42.1342 58.4314C42.2899 58.518 42.4657 58.5604 42.6432 58.5542V60.826C42.4661 60.8283 42.2912 60.7861 42.1342 60.7032L1.18067 36.7572C1.03185 36.6593 0.908112 36.5269 0.819617 36.3711C0.731122 36.2152 0.680402 36.0403 0.671631 35.8608V34.8231C0.674776 34.6521 0.715584 34.484 0.791072 34.331C0.866561 34.178 0.974824 34.0441 1.10795 33.9389Z" fill="white"/>
<path opacity="0.15" d="M100.419 24.4649L100.462 24.5017L100.534 24.5754C100.669 24.7337 100.758 24.9274 100.789 25.1342C100.795 25.1749 100.795 25.2162 100.789 25.257V26.3008C100.778 26.4798 100.726 26.6538 100.638 26.8093C100.549 26.9647 100.427 27.0975 100.28 27.1972L43.1643 60.6786C43.0072 60.7615 42.8324 60.8037 42.6553 60.8014V58.5665C42.833 58.5749 43.0094 58.5323 43.1643 58.4437L100.34 24.9991C100.425 24.9565 100.492 24.8846 100.528 24.7965C100.546 24.7485 100.55 24.6963 100.54 24.6461C100.529 24.5959 100.504 24.55 100.468 24.514C100.455 24.4947 100.438 24.478 100.419 24.4649Z" fill="#27104E"/>
<path d="M85.3419 9.69822C85.3419 9.3114 85.1116 8.92458 84.4935 8.56232C83.9378 8.24675 83.3126 8.07782 82.6755 8.07111H82.518C80.9242 8.07111 79.2638 8.8202 77.8518 9.02896H77.7912C75.8095 9.30526 74.7612 8.67898 73.7916 8.58074C73.6341 8.57202 73.4763 8.57202 73.3189 8.58074C73.1007 8.58074 72.8886 8.58074 72.6523 8.58074C71.7919 8.64419 70.9276 8.62569 70.0707 8.52548C69.3859 8.4518 68.8587 8.41496 68.5012 8.40882H68.3739C67.9745 8.36906 67.5723 8.44799 67.2165 8.63599L64.9258 9.98066V10.7482L82.0877 20.7932L84.3784 19.4485C84.5089 19.3881 84.617 19.287 84.6867 19.16C84.7565 19.033 84.7844 18.8866 84.7662 18.7424V17.9811C84.7539 17.6458 84.6905 17.3144 84.5784 16.9987C84.5198 16.8099 84.4753 16.617 84.445 16.4215C84.4818 16.2413 84.5061 16.0587 84.5178 15.8751C84.5178 15.783 84.5178 15.2611 84.5178 15.0891C84.5181 14.9974 84.5037 14.9061 84.4753 14.819C84.3663 14.426 83.8269 14.0146 83.6512 13.4252C83.6709 13.3541 83.6952 13.2844 83.7239 13.2164C84.0814 12.3814 85.3662 11.3744 85.3662 10.4718C85.3419 10.3552 85.3419 9.864 85.3419 9.69822ZM81.815 11.9209C81.4275 12.1454 81.0087 12.309 80.5727 12.406C79.7976 12.6225 78.9722 12.5573 78.2396 12.2218C78.069 12.1264 77.9267 11.9865 77.8275 11.8165C78.0403 11.4268 78.3632 11.1103 78.7547 10.9078C79.7042 10.3533 80.8252 10.1823 81.8938 10.4289C82.0441 10.4693 82.1887 10.5292 82.324 10.6069C82.4947 10.7023 82.637 10.8422 82.7361 11.0122C82.5341 11.3995 82.2215 11.7162 81.8392 11.9209H81.815Z" fill="#263238"/>
<path d="M67.2165 8.63599L64.9258 9.98065L82.0877 20.0196L84.3784 18.681C84.6693 18.5091 84.9844 18.2758 84.5784 16.9987C84.1723 15.7215 84.6571 15.4023 84.4753 14.819C84.2935 14.2357 83.2209 13.6217 83.7239 12.4428C84.2269 11.2639 86.6145 9.78416 84.5178 8.55616C83.962 8.24059 83.3368 8.07169 82.6998 8.06497H82.5422C80.9484 8.06497 79.288 8.81405 77.876 9.02281H77.8154C75.8338 9.29911 74.7854 8.67282 73.8158 8.57458C73.6584 8.56587 73.5006 8.56587 73.3431 8.57458C73.125 8.57458 72.9129 8.57458 72.6765 8.57458C71.8162 8.63803 70.9519 8.61953 70.095 8.51933C69.4102 8.44565 68.883 8.4088 68.5254 8.40266H68.3739C67.9739 8.36479 67.5717 8.44587 67.2165 8.63599ZM81.3726 17.6372C81.513 17.5499 81.6713 17.4967 81.8353 17.4818C81.9994 17.4669 82.1646 17.4907 82.318 17.5513C82.5422 17.6863 82.4755 17.9319 82.1786 18.11C82.0384 18.1949 81.8809 18.2462 81.7181 18.2601C81.5553 18.2739 81.3915 18.2499 81.2393 18.1898C81.009 18.0609 81.0999 17.846 81.3726 17.6434V17.6372ZM78.779 10.128C79.7294 9.57641 80.8494 9.40554 81.918 9.64908C82.0684 9.68954 82.213 9.74939 82.3483 9.82715C83.1906 10.3245 82.9543 11.2578 81.8392 11.9209C81.4503 12.1409 81.0318 12.3022 80.597 12.3998C79.8219 12.6164 78.9964 12.5512 78.2638 12.2156C77.4215 11.706 77.6518 10.7911 78.779 10.1341V10.128ZM68.1315 9.88855C68.2718 9.80366 68.4293 9.75233 68.5921 9.7385C68.7548 9.72467 68.9186 9.74869 69.0708 9.80873C69.3011 9.94381 69.2405 10.1894 68.9375 10.3613C68.7969 10.4481 68.6382 10.5004 68.4741 10.5143C68.31 10.5282 68.145 10.5031 67.9921 10.4411C67.7679 10.3183 67.8346 10.0666 68.1315 9.89468V9.88855Z" fill="#37474F"/>
<path d="M44.2431 54.8026L8.60422 33.9573C8.51474 33.8993 8.44009 33.8207 8.38637 33.7279C8.33265 33.635 8.30139 33.5306 8.29517 33.4231V33.0179C8.30139 32.9105 8.33265 32.8061 8.38637 32.7132C8.44009 32.6204 8.51474 32.5417 8.60422 32.4837L55.6904 4.95197C55.7845 4.9044 55.8883 4.87964 55.9934 4.87964C56.0986 4.87964 56.2023 4.9044 56.2964 4.95197L91.9353 25.7973C92.0238 25.8573 92.0972 25.9373 92.1498 26.0311C92.2024 26.1249 92.2327 26.2298 92.2383 26.3376V26.7367C92.2318 26.8434 92.2011 26.9471 92.1485 27.0397C92.096 27.1324 92.023 27.2115 91.9353 27.2709L44.8491 54.8149C44.7549 54.8635 44.6503 54.8879 44.5446 54.8857C44.4389 54.8836 44.3353 54.855 44.2431 54.8026Z" fill="#F5F5F5"/>
<path d="M8.5255 32.539C8.44066 32.6372 8.46489 32.7601 8.60427 32.8399L44.2431 53.7159C44.3361 53.7668 44.4405 53.7922 44.5461 53.7896V54.9009C44.4403 54.9057 44.3353 54.8801 44.2431 54.8272L8.60427 33.9819C8.51487 33.9244 8.44061 33.8457 8.38783 33.7526C8.33505 33.6596 8.30534 33.555 8.30127 33.4477V33.0425C8.30937 32.8517 8.38967 32.6714 8.5255 32.539Z" fill="#FAFAFA"/>
<path d="M92.0081 25.828L92.0929 25.914L92.1293 25.9631C92.1624 26.0157 92.1907 26.0712 92.2141 26.1289C92.227 26.1649 92.2371 26.2018 92.2444 26.2394C92.2474 26.2659 92.2474 26.2927 92.2444 26.3192V26.7183C92.2393 26.8253 92.2092 26.9296 92.1565 27.0224C92.1038 27.1153 92.0301 27.1942 91.9414 27.2525L44.8552 54.7965C44.7605 54.8485 44.6538 54.8739 44.5461 54.8702V53.765C44.6536 53.7668 44.7598 53.7415 44.8552 53.6913L91.9414 26.1473C92.0808 26.0613 92.105 25.9324 92.0081 25.828Z" fill="#E0E0E0"/>
<path d="M52.7269 11.1349L58.4536 14.4383L52.7269 17.7846L47.0002 14.4874L52.7269 11.1349Z" fill="#FAFAFA"/>
<path d="M52.7271 11.4113L47.4731 14.4813L52.7271 17.5083L57.9812 14.4383L52.7271 11.4113ZM46.8005 14.6041C46.7914 14.5657 46.7914 14.5258 46.8005 14.4874C46.7999 14.4454 46.8103 14.4041 46.8305 14.3674C46.8507 14.3308 46.88 14.3002 46.9156 14.2787L52.6423 10.9323C52.6771 10.9112 52.7169 10.9001 52.7575 10.9001C52.798 10.9001 52.8378 10.9112 52.8726 10.9323L58.5993 14.2295C58.6344 14.2515 58.6633 14.2823 58.6834 14.3188C58.7035 14.3554 58.714 14.3965 58.714 14.4383C58.714 14.4801 58.7035 14.5212 58.6834 14.5578C58.6633 14.5943 58.6344 14.625 58.5993 14.6471L52.8726 17.9933C52.8378 18.0144 52.798 18.0256 52.7575 18.0256C52.7169 18.0256 52.6771 18.0144 52.6423 17.9933L46.9156 14.69C46.8678 14.6773 46.8266 14.6465 46.8005 14.6041Z" fill="#455A64"/>
<path d="M61.1019 16.2312L60.6899 16.4706C60.6399 16.487 60.5964 16.5191 60.5656 16.5621C60.5347 16.6051 60.5181 16.6569 60.5181 16.7101C60.5181 16.7633 60.5347 16.8151 60.5656 16.8581C60.5964 16.9011 60.6399 16.9331 60.6899 16.9496L80.8636 28.7506C80.9897 28.8144 81.1287 28.8476 81.2696 28.8476C81.4106 28.8476 81.5496 28.8144 81.6757 28.7506L82.0938 28.505C82.1416 28.4873 82.1829 28.4551 82.212 28.4128C82.2412 28.3706 82.2568 28.3202 82.2568 28.2686C82.2568 28.2171 82.2412 28.1667 82.212 28.1245C82.1829 28.0822 82.1416 28.05 82.0938 28.0322L61.9201 16.2312C61.7938 16.1644 61.6534 16.1296 61.511 16.1296C61.3686 16.1296 61.2282 16.1644 61.1019 16.2312Z" fill="#E0E0E0"/>
<path d="M58.6113 17.6925L58.1992 17.932C57.975 18.0671 57.975 18.282 58.1992 18.4109L78.3668 30.212C78.4941 30.2754 78.6341 30.3083 78.7759 30.3083C78.9177 30.3083 79.0577 30.2754 79.1849 30.212L79.597 29.9664C79.6448 29.9486 79.6861 29.9165 79.7153 29.8742C79.7444 29.8319 79.7601 29.7816 79.7601 29.73C79.7601 29.6784 79.7444 29.6281 79.7153 29.5858C79.6861 29.5435 79.6448 29.5113 79.597 29.4936L59.4233 17.6925C59.2972 17.6287 59.1582 17.5955 59.0173 17.5955C58.8763 17.5955 58.7374 17.6287 58.6113 17.6925Z" fill="#E0E0E0"/>
<path d="M56.1268 19.1477L55.7087 19.3871C55.6587 19.4035 55.6152 19.4356 55.5844 19.4786C55.5535 19.5216 55.5369 19.5734 55.5369 19.6266C55.5369 19.6798 55.5535 19.7316 55.5844 19.7746C55.6152 19.8176 55.6587 19.8496 55.7087 19.8661L75.8824 31.6671C76.0085 31.7309 76.1475 31.7641 76.2884 31.7641C76.4294 31.7641 76.5684 31.7309 76.6945 31.6671L77.1126 31.4215C77.1604 31.4038 77.2017 31.3716 77.2308 31.3293C77.26 31.287 77.2756 31.2367 77.2756 31.1851C77.2756 31.1336 77.26 31.0832 77.2308 31.041C77.2017 30.9987 77.1604 30.9665 77.1126 30.9487L56.9389 19.1477C56.8136 19.081 56.6743 19.0461 56.5328 19.0461C56.3914 19.0461 56.252 19.081 56.1268 19.1477Z" fill="#E0E0E0"/>
<path d="M51.2666 15.4268L51.709 13.6217L53.0361 13.5111L52.7877 14.5365L60.09 13.9287L59.9021 14.7023L51.2666 15.4268Z" fill="#9854CB"/>
<path d="M42.2311 17.275L47.9578 20.5783L42.2311 23.9246L36.5105 20.6213L42.2311 17.275Z" fill="#FAFAFA"/>
<path d="M42.2312 17.5513L36.9832 20.6213L42.2312 23.6483L47.4852 20.5783L42.2312 17.5513ZM36.3045 20.7441C36.2852 20.7083 36.2748 20.6682 36.2742 20.6274C36.2736 20.5855 36.284 20.5441 36.3042 20.5074C36.3244 20.4708 36.3538 20.4402 36.3893 20.4187L42.116 17.0724C42.1508 17.0513 42.1906 17.0401 42.2312 17.0401C42.2717 17.0401 42.3115 17.0513 42.3463 17.0724L48.073 20.3695C48.1093 20.3908 48.1395 20.4211 48.1608 20.4577C48.182 20.4943 48.1935 20.5359 48.1942 20.5783C48.1944 20.6201 48.1831 20.6611 48.1617 20.6969C48.1404 20.7326 48.1097 20.7617 48.073 20.7809L42.3524 24.1334C42.3164 24.1544 42.2757 24.1654 42.2342 24.1654C42.1927 24.1654 42.152 24.1544 42.116 24.1334L36.3954 20.83C36.3582 20.8099 36.3269 20.7803 36.3045 20.7441Z" fill="#455A64"/>
<path d="M50.6183 22.3712L50.2062 22.6106C49.9759 22.7396 49.9759 22.9545 50.2062 23.0895L70.3738 34.8906C70.4999 34.9544 70.6389 34.9876 70.7799 34.9876C70.9208 34.9876 71.0598 34.9544 71.1859 34.8906L71.604 34.645C71.6518 34.6273 71.6931 34.5951 71.7223 34.5528C71.7514 34.5105 71.7671 34.4602 71.7671 34.4086C71.7671 34.3571 71.7514 34.3067 71.7223 34.2644C71.6931 34.2222 71.6518 34.19 71.604 34.1722L51.406 22.3712C51.2839 22.3086 51.149 22.276 51.0121 22.276C50.8753 22.276 50.7404 22.3086 50.6183 22.3712Z" fill="#E0E0E0"/>
<path d="M48.1154 23.8325L47.7033 24.072C47.6534 24.0884 47.6098 24.1204 47.579 24.1634C47.5481 24.2064 47.5315 24.2582 47.5315 24.3114C47.5315 24.3646 47.5481 24.4164 47.579 24.4594C47.6098 24.5025 47.6534 24.5345 47.7033 24.5509L67.877 36.352C68.0031 36.4157 68.1421 36.4489 68.2831 36.4489C68.424 36.4489 68.563 36.4157 68.6891 36.352L69.1012 36.1063C69.3314 35.9774 69.3314 35.7625 69.1012 35.6336L48.9335 23.8325C48.8072 23.7658 48.6668 23.7309 48.5244 23.7309C48.382 23.7309 48.2417 23.7658 48.1154 23.8325Z" fill="#E0E0E0"/>
<path d="M45.6308 25.2877L45.2187 25.5271C45.1687 25.5436 45.1252 25.5756 45.0944 25.6186C45.0635 25.6616 45.0469 25.7134 45.0469 25.7666C45.0469 25.8198 45.0635 25.8716 45.0944 25.9146C45.1252 25.9576 45.1687 25.9897 45.2187 26.0061L65.3864 37.8071C65.5136 37.8705 65.6536 37.9035 65.7954 37.9035C65.9372 37.9035 66.0772 37.8705 66.2045 37.8071L66.6165 37.5615C66.6643 37.5438 66.7056 37.5116 66.7348 37.4693C66.7639 37.4271 66.7796 37.3767 66.7796 37.3252C66.7796 37.2736 66.7639 37.2232 66.7348 37.181C66.7056 37.1387 66.6643 37.1065 66.6165 37.0888L46.4428 25.2877C46.3176 25.221 46.1782 25.1862 46.0368 25.1862C45.8953 25.1862 45.756 25.221 45.6308 25.2877Z" fill="#E0E0E0"/>
<path d="M40.7769 21.5668L41.2192 19.7617L42.5464 19.6512L42.2919 20.6765L49.6002 20.0687L49.4063 20.8423L40.7769 21.5668Z" fill="#9854CB"/>
<path d="M31.7411 23.6913L26.4871 26.7613L31.7411 29.7883L36.9891 26.7183L31.7411 23.6913ZM25.8144 26.8841C25.7906 26.8477 25.778 26.805 25.7781 26.7613C25.7786 26.7196 25.7901 26.6789 25.8114 26.6432C25.8327 26.6076 25.8631 26.5784 25.8993 26.5587L31.6199 23.2062C31.6562 23.1863 31.6968 23.1759 31.7381 23.1759C31.7794 23.1759 31.82 23.1863 31.8563 23.2062L37.5769 26.5095C37.6132 26.5308 37.6434 26.5611 37.6647 26.5977C37.6859 26.6343 37.6974 26.6759 37.6981 26.7183C37.6976 26.7592 37.6867 26.7994 37.6666 26.8348C37.6464 26.8703 37.6176 26.8999 37.583 26.9209L31.8563 30.2672C31.82 30.2871 31.7794 30.2975 31.7381 30.2975C31.6968 30.2975 31.6562 30.2871 31.6199 30.2672L25.8993 26.9639C25.8648 26.9451 25.8355 26.9176 25.8144 26.8841Z" fill="#455A64"/>
<path d="M40.1222 28.505L39.7102 28.7506C39.6624 28.7684 39.6211 28.8006 39.5919 28.8428C39.5628 28.8851 39.5471 28.9354 39.5471 28.987C39.5471 29.0386 39.5628 29.0889 39.5919 29.1312C39.6211 29.1735 39.6624 29.2057 39.7102 29.2234L59.8899 41.0245C60.0152 41.0912 60.1545 41.126 60.296 41.126C60.4374 41.126 60.5768 41.0912 60.702 41.0245L61.1141 40.785C61.164 40.7686 61.2075 40.7366 61.2384 40.6936C61.2692 40.6506 61.2859 40.5988 61.2859 40.5456C61.2859 40.4924 61.2692 40.4406 61.2384 40.3975C61.2075 40.3545 61.164 40.3225 61.1141 40.3061L40.9403 28.505C40.8135 28.4403 40.6734 28.4065 40.5313 28.4065C40.3892 28.4065 40.2491 28.4403 40.1222 28.505Z" fill="#E0E0E0"/>
<path d="M37.6256 29.9725L37.2075 30.212C37.1597 30.2297 37.1184 30.2619 37.0892 30.3042C37.0601 30.3465 37.0444 30.3968 37.0444 30.4484C37.0444 30.4999 37.0601 30.5503 37.0892 30.5925C37.1184 30.6348 37.1597 30.667 37.2075 30.6848L57.3812 42.492C57.5073 42.5558 57.6463 42.5889 57.7872 42.5889C57.9282 42.5889 58.0672 42.5558 58.1933 42.492L58.6114 42.2464C58.6592 42.2286 58.7005 42.1965 58.7296 42.1542C58.7588 42.1119 58.7744 42.0616 58.7744 42.01C58.7744 41.9584 58.7588 41.9081 58.7296 41.8658C58.7005 41.8235 58.6592 41.7913 58.6114 41.7736L38.4377 29.9725C38.3124 29.9058 38.1731 29.871 38.0316 29.871C37.8902 29.871 37.7508 29.9058 37.6256 29.9725Z" fill="#E0E0E0"/>
<path d="M35.1349 31.4215L34.7228 31.6671C34.675 31.6849 34.6338 31.717 34.6046 31.7593C34.5754 31.8016 34.5598 31.8519 34.5598 31.9035C34.5598 31.9551 34.5754 32.0054 34.6046 32.0477C34.6338 32.09 34.675 32.1222 34.7228 32.1399L54.8966 43.941C55.0218 44.0077 55.1611 44.0425 55.3026 44.0425C55.4441 44.0425 55.5834 44.0077 55.7086 43.941L56.1268 43.7015C56.1767 43.6851 56.2202 43.6531 56.2511 43.6101C56.2819 43.5671 56.2986 43.5152 56.2986 43.4621C56.2986 43.4089 56.2819 43.3571 56.2511 43.314C56.2202 43.271 56.1767 43.239 56.1268 43.2226L35.953 31.4215C35.8257 31.3581 35.6858 31.3252 35.544 31.3252C35.4021 31.3252 35.2622 31.3581 35.1349 31.4215Z" fill="#E0E0E0"/>
<path d="M30.1414 27.9524L30.5837 26.1473L31.9109 26.0367L31.6624 27.0683L38.9647 26.4543L38.7769 27.2341L30.1414 27.9524Z" fill="#9854CB"/>
<path d="M21.2453 29.8251L15.9913 32.8951L21.2453 35.9221L26.4993 32.8521L21.2453 29.8251ZM15.3186 33.0179C15.3088 32.9797 15.3088 32.9395 15.3186 32.9013C15.318 32.8593 15.3284 32.8179 15.3486 32.7813C15.3688 32.7446 15.3982 32.714 15.4337 32.6925L21.1604 29.3462C21.1952 29.3251 21.235 29.314 21.2756 29.314C21.3161 29.314 21.3559 29.3251 21.3907 29.3462L27.1174 32.6495C27.1529 32.6695 27.1824 32.699 27.2027 32.7347C27.223 32.7704 27.2333 32.811 27.2325 32.8521C27.2331 32.8941 27.2228 32.9355 27.2025 32.9721C27.1823 33.0088 27.153 33.0394 27.1174 33.0609L21.3907 36.4072C21.3559 36.4283 21.3161 36.4394 21.2756 36.4394C21.235 36.4394 21.1952 36.4283 21.1604 36.4072L15.4337 33.11C15.3869 33.0921 15.3467 33.0599 15.3186 33.0179Z" fill="#455A64"/>
<path d="M29.6324 34.645L29.2143 34.8906C29.1665 34.9084 29.1252 34.9405 29.0961 34.9828C29.0669 35.0251 29.0513 35.0754 29.0513 35.127C29.0513 35.1786 29.0669 35.2289 29.0961 35.2712C29.1252 35.3135 29.1665 35.3457 29.2143 35.3634L49.388 47.1645C49.5132 47.2312 49.6526 47.266 49.794 47.266C49.9355 47.266 50.0749 47.2312 50.2001 47.1645L50.6182 46.925C50.8424 46.7899 50.8424 46.575 50.6182 46.4461L30.4445 34.645C30.3184 34.5812 30.1794 34.548 30.0384 34.548C29.8975 34.548 29.7585 34.5812 29.6324 34.645Z" fill="#E0E0E0"/>
<path d="M27.1296 36.1064L26.7175 36.352C26.6697 36.3697 26.6284 36.4019 26.5993 36.4442C26.5701 36.4865 26.5544 36.5368 26.5544 36.5884C26.5544 36.6399 26.5701 36.6903 26.5993 36.7325C26.6284 36.7748 26.6697 36.807 26.7175 36.8248L46.8852 48.6258C47.0115 48.6926 47.1518 48.7274 47.2942 48.7274C47.4366 48.7274 47.577 48.6926 47.7033 48.6258L48.1153 48.3864C48.1653 48.37 48.2088 48.3379 48.2397 48.2949C48.2705 48.2519 48.2871 48.2001 48.2871 48.1469C48.2871 48.0937 48.2705 48.0419 48.2397 47.9989C48.2088 47.9559 48.1653 47.9239 48.1153 47.9074L27.9416 36.1064C27.8155 36.0426 27.6765 36.0094 27.5356 36.0094C27.3946 36.0094 27.2556 36.0426 27.1296 36.1064Z" fill="#E0E0E0"/>
<path d="M24.6451 37.5615L24.227 37.8071C24.1792 37.8249 24.1379 37.857 24.1088 37.8993C24.0796 37.9416 24.064 37.9919 24.064 38.0435C24.064 38.0951 24.0796 38.1454 24.1088 38.1877C24.1379 38.23 24.1792 38.2622 24.227 38.2799L44.4007 50.081C44.5259 50.1477 44.6653 50.1825 44.8067 50.1825C44.9482 50.1825 45.0876 50.1477 45.2128 50.081L45.6309 49.8415C45.6808 49.8251 45.7244 49.7931 45.7552 49.7501C45.7861 49.7071 45.8027 49.6552 45.8027 49.6021C45.8027 49.5489 45.7861 49.497 45.7552 49.454C45.7244 49.411 45.6808 49.379 45.6309 49.3626L25.4572 37.5615C25.3311 37.4977 25.1921 37.4645 25.0512 37.4645C24.9102 37.4645 24.7712 37.4977 24.6451 37.5615Z" fill="#E0E0E0"/>
<path d="M19.5122 34.3441L19.9546 32.539L21.2817 32.4285L21.0272 33.4539L28.3356 32.846L28.1416 33.6196L19.5122 34.3441Z" fill="#9854CB"/>
<path d="M78.9912 19.2582L76.4521 17.232C76.3985 17.1662 76.3499 17.0964 76.3066 17.0232L76.3793 16.9496L76.9853 16.3662L78.9548 14.5242C79.0128 14.4782 79.0598 14.4195 79.0923 14.3525C79.1248 14.2856 79.142 14.212 79.1427 14.1374V13.3638C79.1307 13.1704 79.0513 12.9875 78.9185 12.848C78.6959 12.562 78.5536 12.2205 78.5064 11.8595C78.5592 11.5129 78.7232 11.1935 78.973 10.9508C79.2597 10.7173 79.4791 10.41 79.6081 10.0611C79.7372 9.71209 79.7711 9.33437 79.7063 8.96755C79.7834 8.49523 79.6993 8.0104 79.468 7.59297C79.2366 7.17553 78.8718 6.8504 78.4337 6.67118C77.8321 6.36379 77.1683 6.20196 76.4945 6.19841H76.4097C75.3424 6.1767 74.3039 6.54998 73.4887 7.24834C72.9327 7.65999 72.2775 7.91238 71.592 7.979C71.014 8.07392 70.4247 8.07392 69.8467 7.979C69.7143 7.95684 69.5807 7.94249 69.4467 7.93602H69.4043C69.2592 7.92003 69.1123 7.93528 68.9735 7.98078C68.8346 8.02628 68.7067 8.10101 68.5983 8.20005L66.9015 9.79646L66.2955 10.3797H66.2652C66.0614 10.5295 65.8247 10.6268 65.5756 10.6631C65.3264 10.6995 65.0723 10.6739 64.8351 10.5885C63.9018 10.1894 63.4594 9.97451 61.9384 9.26841C61.497 9.07356 61.02 8.97522 60.5385 8.97983C59.8251 8.99113 59.124 9.16977 58.4902 9.50173V10.2754L79.4881 22.5554C79.7287 22.2529 79.8687 21.8811 79.8881 21.4931V20.7932C79.8566 20.487 79.7601 20.1913 79.6053 19.9263C79.4505 19.6614 79.241 19.4335 78.9912 19.2582ZM74.6583 8.5316C75.0365 8.21929 75.4874 8.01021 75.9678 7.92423C76.4483 7.83826 76.9426 7.87825 77.4035 8.04041C77.5035 8.07592 77.6008 8.11902 77.6944 8.16934C78.0304 8.3316 78.2958 8.61356 78.4397 8.96141C78.3581 9.1977 78.2184 9.40901 78.0337 9.57541C77.7886 9.79508 77.502 9.96216 77.1914 10.0666C76.467 10.316 75.675 10.2675 74.9856 9.93152C74.8204 9.9378 74.6583 9.88597 74.5266 9.7848C74.3949 9.68364 74.3019 9.53939 74.2634 9.3766C74.2248 9.2138 74.2431 9.0425 74.3151 8.89181C74.3871 8.74113 74.5084 8.62035 74.6583 8.55002V8.5316Z" fill="#37474F"/>
<path d="M58.4597 9.58155L79.4576 21.8616C80.0273 21.0756 80.0636 20.259 78.991 19.2582L76.4518 17.232C76.4518 17.232 75.9004 16.618 76.3791 16.1759L76.9851 15.5926L78.9546 13.7506C78.9546 13.7506 79.4031 13.4313 78.9183 12.848C78.4335 12.2647 78.2032 10.8894 78.9728 10.1771C80.1848 9.04737 79.9485 7.48166 78.4335 6.67118C77.8318 6.36379 77.168 6.20196 76.4943 6.19841H76.4094C75.3421 6.1767 74.3037 6.54998 73.4885 7.24834C72.9324 7.65999 72.2773 7.91238 71.5917 7.979C71.0137 8.07392 70.4244 8.07392 69.8464 7.979C69.7141 7.95684 69.5805 7.94249 69.4465 7.93602H69.4041C69.259 7.92003 69.1121 7.93528 68.9732 7.98078C68.8343 8.02628 68.7065 8.10101 68.5981 8.20005L66.9013 9.79646L66.2953 10.3797H66.265C66.0612 10.5295 65.8245 10.6268 65.5754 10.6631C65.3262 10.6995 65.072 10.6739 64.8348 10.5885C63.9016 10.1894 63.4592 9.97451 61.9382 9.26841C61.4967 9.07356 61.0197 8.97522 60.5383 8.97983C59.8082 9.01094 59.0958 9.21717 58.4597 9.58155ZM77.4033 7.26676C77.5034 7.30432 77.6007 7.34948 77.6941 7.40184C77.9054 7.47237 78.0934 7.60045 78.2376 7.77204C78.3818 7.94364 78.4767 8.15213 78.5117 8.37469C78.5467 8.59724 78.5207 8.82527 78.4363 9.03381C78.352 9.24235 78.2126 9.42335 78.0335 9.55699C77.7883 9.77666 77.5018 9.94374 77.1912 10.0482C76.4668 10.2976 75.6748 10.2491 74.9853 9.9131C74.7749 9.84113 74.588 9.71197 74.4451 9.53971C74.3023 9.36745 74.2088 9.15874 74.175 8.93633C74.1413 8.71393 74.1685 8.48641 74.2537 8.2786C74.3388 8.07079 74.4787 7.89069 74.6581 7.75797C75.0363 7.44566 75.4871 7.23656 75.9676 7.15059C76.4481 7.06461 76.9423 7.1046 77.4033 7.26676Z" fill="#455A64"/>
</svg>
