<svg width="72" height="45" viewBox="0 0 72 45" fill="none" xmlns="http://www.w3.org/2000/svg">
<path d="M71.2637 11.022C71.2646 11.1826 71.2205 11.3402 71.1364 11.4763C70.4975 12.3997 69.6525 13.157 68.67 13.6867C65.64 15.4244 61.3131 15.8849 57.5862 15.0928L20.7657 36.6319L20.8324 36.7486L21.4384 36.6503V38.7686C21.4384 40.365 20.39 41.9676 18.2811 43.1772C14.1118 45.584 7.37309 45.5534 3.28259 43.1096L3.01595 42.9438C2.97062 42.9121 2.93328 42.87 2.90696 42.8209C2.88065 42.7719 2.86608 42.7172 2.86445 42.6614V40.6659L12.4514 41.2246L13.8512 38.2652L13.0695 37.7985L10.1728 36.0793L1.20401 37.3749C1.14761 37.3827 1.0902 37.3783 1.03562 37.3619C0.981037 37.3455 0.930546 37.3174 0.887521 37.2796C0.844495 37.2419 0.809929 37.1952 0.786129 37.1428C0.762329 37.0904 0.749842 37.0334 0.749512 36.9758V34.7531L3.34319 34.3171C3.34319 34.3171 10.7 32.1129 14.433 32.9111L51.2475 11.372C50.8218 10.714 50.6002 9.94205 50.6112 9.15542V7.05555L51.1687 7.25816C51.8055 6.22079 52.7026 5.37327 53.7685 4.80216C57.9438 2.39528 69.179 3.08297 69.179 3.08297V5.15829C69.1794 5.20641 69.1623 5.253 69.1311 5.28921C69.0998 5.32543 69.0565 5.34875 69.0094 5.35476L59.5982 6.75468L58.9922 8.05637L58.2044 9.71416L61.8889 11.9L71.0395 8.56599L71.2637 8.96508V11.022Z" fill="#37474F"/>
<path d="M13.8209 36.1223L13.0392 37.7801L10.1425 36.0609L1.20401 37.3749C1.14761 37.3827 1.0902 37.3783 1.03562 37.3619C0.981037 37.3455 0.930546 37.3174 0.887521 37.2796C0.844495 37.2419 0.809929 37.1952 0.786129 37.1428C0.762329 37.0904 0.749842 37.0334 0.749512 36.9758V34.7531L10.1243 33.9365L13.8209 36.1223Z" fill="#263238"/>
<path d="M59.6102 4.65482L69.191 3.08911V5.18285C69.1914 5.23097 69.1743 5.27756 69.143 5.31377C69.1118 5.34999 69.0685 5.37332 69.0213 5.37934L59.6102 6.77926L59.0042 8.08093L58.2224 7.61431L59.6102 4.65482Z" fill="#263238"/>
<path d="M57.5862 15.0744V12.95L20.7656 34.4891V36.6135L57.5862 15.0744Z" fill="#37474F"/>
<path d="M3.36764 32.1927C2.35667 32.7353 1.49139 33.5192 0.846674 34.4768C0.796423 34.5577 0.769917 34.6513 0.770267 34.7469C0.770617 34.8425 0.797802 34.936 0.848643 35.0164C0.899485 35.0969 0.971883 35.1611 1.05738 35.2014C1.14288 35.2418 1.23795 35.2567 1.33148 35.2443L10.1427 33.9365L13.8211 36.1223L12.4213 39.0879L3.19795 40.4571C2.85253 40.5063 2.73739 40.6475 2.91919 40.7641L3.25249 40.9729C7.36723 43.4289 14.0817 43.4289 18.251 41.0405C21.3113 39.2783 22.1476 36.6995 20.7659 34.4891L57.5622 12.95C61.2891 13.7482 65.6281 13.2876 68.6459 11.55C69.6529 11.004 70.5155 10.2206 71.1609 9.26595C71.2116 9.18463 71.2383 9.09026 71.2378 8.99403C71.2373 8.8978 71.2096 8.80373 71.1579 8.72297C71.1063 8.64221 71.0329 8.57814 70.9464 8.53835C70.8599 8.49855 70.764 8.48472 70.67 8.49845L61.8951 9.79398L58.2167 7.60815L59.6105 4.64251L68.8399 3.27331C69.1671 3.22419 69.2822 3.07683 69.1126 2.96631L68.7793 2.75755C64.6706 0.301549 57.9561 0.301539 53.7808 2.69C50.7508 4.45218 49.8902 7.03099 51.2659 9.24139L14.4514 30.7928C10.7184 29.9946 6.38552 30.4551 3.36764 32.1927Z" fill="#455A64"/>
</svg>
