<svg width="131" height="221" viewBox="0 0 131 221" fill="none" xmlns="http://www.w3.org/2000/svg">
<path d="M24.5651 193.245L16.7356 208.724C16.4628 209.201 16.2877 209.729 16.2207 210.277C16.1538 210.824 16.1963 211.38 16.3457 211.91C16.4952 212.44 16.7485 212.935 17.0906 213.364C17.4328 213.793 17.8567 214.148 18.337 214.407C18.8174 214.666 19.3445 214.825 19.8867 214.874C20.429 214.922 20.9753 214.86 21.4932 214.69C22.0111 214.52 22.4899 214.246 22.9011 213.885C23.3122 213.523 23.6473 213.082 23.8864 212.586L31.7644 197.021C32.5279 195.529 31.5341 193.472 29.5404 192.435C27.5466 191.397 25.3226 191.753 24.5651 193.245Z" fill="#455A64"/>
<path d="M85.741 160.844L101.018 168.777C101.962 169.245 103.048 169.323 104.048 168.995C105.047 168.667 105.882 167.958 106.376 167.019C106.87 166.08 106.985 164.983 106.697 163.959C106.409 162.936 105.739 162.065 104.83 161.532L89.4679 153.55C87.9953 152.776 85.9652 153.789 84.935 155.803C83.9048 157.817 84.2684 160.077 85.741 160.844Z" fill="#455A64"/>
<path d="M98.9395 92.1807L98.8668 92.1438L71.2635 77.7947L71.1604 77.7455C62.9976 73.5581 52.0896 74.7861 40.3453 82.4488C16.7538 97.8418 -1.26868 133.343 0.0887605 161.741C0.767481 175.9 6.14876 185.613 14.2692 189.893L14.3419 189.929L41.9573 204.279L42.0421 204.322C50.211 208.528 61.1251 207.3 72.8815 199.631C96.4731 184.232 114.496 148.736 113.132 120.333C112.441 106.18 107.078 96.4664 98.9395 92.1807Z" fill="#9854CB"/>
<path opacity="0.1" d="M41.3394 203.947L14.3602 189.917L14.2815 189.868C6.155 185.57 0.785839 175.857 0.107119 161.722C-0.498881 149.055 2.75534 134.989 8.62748 121.923L36.1762 136.278C30.3162 149.344 27.0862 163.411 27.6922 176.078C28.3467 189.929 33.4977 199.526 41.3394 203.947Z" fill="#27104E"/>
<path opacity="0.4" d="M102.356 164.866C118.076 133.9 116.515 101.341 98.8694 92.1451C81.2235 82.9487 54.1746 100.597 38.4541 131.563C22.7335 162.529 24.2943 195.087 41.9403 204.283C59.5862 213.48 86.635 195.832 102.356 164.866Z" fill="white"/>
<path d="M53.0956 197.647C39.1576 198.335 36.9275 182.488 36.5942 175.642C35.3822 150.597 51.9624 117.963 72.7663 104.418C78.0628 100.961 83.232 99.0206 87.7103 98.7996C101.648 98.1119 103.884 113.959 104.212 120.805C105.424 145.85 88.8496 178.485 68.0395 192.06C62.7431 195.517 57.5739 197.457 53.1016 197.678L53.0956 197.647Z" fill="#FAFAFA"/>
<path d="M64.5915 181.297C64.5196 181.298 64.448 181.288 64.3794 181.266C64.2181 181.218 64.0823 181.106 64.0017 180.957C63.9211 180.807 63.9022 180.631 63.9491 180.468L72.3422 151.806C72.3657 151.726 72.4046 151.65 72.4568 151.585C72.5089 151.52 72.5733 151.465 72.6461 151.425C72.719 151.385 72.799 151.36 72.8815 151.351C72.964 151.342 73.0474 151.35 73.127 151.373C73.2066 151.397 73.2808 151.437 73.3453 151.489C73.4098 151.542 73.4635 151.607 73.5032 151.681C73.5428 151.755 73.5678 151.836 73.5765 151.92C73.5853 152.003 73.5777 152.088 73.5542 152.168L65.1733 180.83C65.1343 180.958 65.0578 181.072 64.954 181.155C64.8501 181.238 64.7237 181.288 64.5915 181.297Z" fill="#9854CB"/>
<path d="M88.2922 144.18C88.1557 144.408 87.9741 144.604 87.7589 144.757L73.7482 154.772L51.1444 140.773C50.9303 140.64 50.7441 140.466 50.5964 140.26C50.4488 140.055 50.3425 139.822 50.2837 139.575C50.2249 139.328 50.2147 139.071 50.2537 138.82C50.2927 138.569 50.3802 138.328 50.5111 138.111C50.642 137.894 50.8138 137.705 51.0167 137.556C51.2196 137.406 51.4495 137.298 51.6935 137.239C51.9374 137.179 52.1905 137.169 52.4384 137.209C52.6863 137.248 52.9241 137.337 53.1381 137.469L73.5785 150.13L85.5712 141.571C85.9314 141.316 86.3669 141.195 86.8048 141.227C87.2428 141.259 87.6565 141.443 87.9768 141.747C88.2971 142.051 88.5044 142.458 88.564 142.899C88.6236 143.339 88.5319 143.788 88.3043 144.168L88.2922 144.18Z" fill="#37474F"/>
<path d="M72.6513 145.752C75.4268 143.941 77.8083 145.181 77.972 148.521C78.1356 151.861 76.0085 156.037 73.233 157.848C70.4576 159.659 68.076 158.419 67.9184 155.079C67.7609 151.739 69.8758 147.563 72.6513 145.752Z" fill="#9854CB"/>
<path d="M87.1224 47.4692C87.9573 46.782 89.0187 46.4418 90.0918 46.5175C90.6445 46.5596 91.1995 46.5596 91.7522 46.5175C92.1127 46.4961 92.4619 46.3824 92.7672 46.1869C93.0724 45.9915 93.3237 45.7207 93.4975 45.4C93.5763 45.2281 93.6187 45.05 93.6975 44.8842C93.8247 44.6202 94.0308 44.4053 94.1702 44.1474C94.3717 43.7721 94.4258 43.3335 94.3217 42.9194C94.2611 42.7677 94.2383 42.6033 94.255 42.4405C94.2979 42.3051 94.3704 42.1813 94.4671 42.0783C94.6473 41.826 94.7571 41.5292 94.7848 41.2191C94.8126 40.909 94.7572 40.597 94.6247 40.3161C94.5413 40.1741 94.4723 40.0239 94.4186 39.8679C94.3399 39.5302 94.5217 39.1925 94.5338 38.8486C94.6004 37.3075 92.0734 37.5285 91.1705 37.7373C90.916 37.7987 89.6494 38.0566 89.0737 38.1978C89.2039 37.3556 89.2039 36.498 89.0737 35.6558C88.8616 34.0287 87.3284 33.2612 87.1466 34.2191C87.0436 34.7655 87.1466 36.3005 86.4982 37.5776C86.1028 38.1429 85.7905 38.7634 85.571 39.4196C85.3347 40.2854 85.0438 40.8932 83.147 42.7291C81.3775 44.4422 74.663 49.8945 74.663 49.8945C74.663 49.8945 67.6152 37.5531 65.87 34.2682C62.3491 27.594 56.1255 29.0001 56.1255 29.0001L57.4587 37.8601C57.4587 37.8601 68.6697 55.8748 70.5907 58.3615C72.5117 60.8482 75.0812 60.0807 76.4628 58.8282C78.4566 57.0292 83.6379 50.9567 87.1224 47.4692Z" fill="#B16668"/>
<path d="M55.1982 29.1106C55.1982 29.1106 60.5189 27.8273 63.1247 30.3386C65.5487 32.6718 66.5365 34.6366 69.6332 40.6046C72.4814 46.0692 74.4812 49.2006 74.4812 49.2006C74.4812 49.2006 72.0147 54.7266 67.5364 54.3828L60.5613 44.0307L55.1982 29.1106Z" fill="#9854CB"/>
<path opacity="0.6" d="M55.1982 29.1106C55.1982 29.1106 60.5189 27.8273 63.1247 30.3386C65.5487 32.6718 66.5365 34.6366 69.6332 40.6046C72.4814 46.0692 74.4812 49.2006 74.4812 49.2006C74.4812 49.2006 72.0147 54.7266 67.5364 54.3828L60.5613 44.0307L55.1982 29.1106Z" fill="#27104E"/>
<path d="M89.7221 38.7688C89.007 38.9775 88.5464 39.4749 88.3465 40.752C88.2253 41.5134 87.6617 42.815 86.7527 43.208C87.1506 43.2354 87.5474 43.1413 87.892 42.9378C88.3465 42.6063 88.4555 42.5817 88.6313 42.8519C88.7634 43.0315 88.9358 43.1767 89.1343 43.2755C88.9691 43.4102 88.851 43.5951 88.7975 43.803C88.744 44.0108 88.758 44.2306 88.8373 44.4298C89.11 45.1482 90.8553 45.4859 92.4188 45.0009C92.4188 45.0009 89.9645 45.3017 89.5585 44.4606C89.1524 43.6194 90.5523 42.901 91.5098 42.815C91.5098 42.815 89.1706 42.9501 88.9585 42.1396C88.7464 41.3292 89.7766 40.9116 91.1583 40.8441C91.1583 40.8441 89.2433 40.8441 89.0373 40.1503C88.968 39.875 88.9992 39.5837 89.125 39.3299C89.2508 39.0761 89.4628 38.8768 89.7221 38.7688Z" fill="#9A4A4D"/>
<path d="M64.1246 46.6526C64.1246 46.6526 63.3187 51.1163 64.0519 54.8802C64.7852 58.644 65.3245 61.8429 65.3245 61.8429C65.3245 61.8429 63.0763 64.4524 58.8221 63.8568C54.1923 63.206 55.6043 52.0742 58.2646 49.3419C59.8094 47.7231 61.9048 46.7614 64.1246 46.6526Z" fill="#9854CB"/>
<path opacity="0.5" d="M64.1246 46.6526C64.1246 46.6526 63.3187 51.1163 64.0519 54.8802C64.7852 58.644 65.3245 61.8429 65.3245 61.8429C65.3245 61.8429 63.0763 64.4524 58.8221 63.8568C54.1923 63.206 55.6043 52.0742 58.2646 49.3419C59.8094 47.7231 61.9048 46.7614 64.1246 46.6526Z" fill="#27104E"/>
<path d="M63.6519 136.407L64.2579 136.309C64.2579 134.467 64.1185 132.748 64.5609 131.863L63.6761 129.598L63.6519 136.407Z" fill="#263238"/>
<path d="M62.0461 127.971C62.2037 129.242 62.943 130.537 63.046 133.048C63.1243 134.117 63.1243 135.191 63.046 136.26L63.652 136.407V129.598L62.0461 127.971Z" fill="#263238"/>
<path d="M76.4931 137.85C76.4637 138.195 76.3304 138.523 76.1114 138.789C75.7962 139.041 74.8085 139.882 71.5724 139.76C68.3364 139.637 67.191 138.851 66.0699 137.85C64.9488 136.849 64.5974 134.166 64.4095 132.938C64.123 131.098 63.3 129.388 62.0461 128.026C61.8803 127.624 61.838 127.181 61.9249 126.755C62.7767 126.748 63.6094 127.011 64.306 127.508C65.0027 128.004 65.5284 128.709 65.8094 129.524C67.0214 132.496 68.0031 135.959 70.6271 136.732C72.5526 137.251 74.5133 137.624 76.4931 137.85Z" fill="#263238"/>
<path d="M74.7964 135.007C75.8023 135.848 76.5598 136.235 76.4871 137.021C76.4144 137.807 75.5902 138.206 74.9236 138.421C73.348 138.937 71.5482 138.771 69.9544 138.519C68.3606 138.267 66.5669 137.543 65.87 136.008C65.6797 135.557 65.5434 135.085 65.464 134.602C65.2109 133.005 64.7715 131.445 64.155 129.954C63.9027 129.329 63.5943 128.729 63.2339 128.161C62.7253 127.589 62.3669 126.896 62.1916 126.147C62.1128 125.533 62.5794 124.606 63.1854 123.63C63.4926 123.209 63.7136 122.731 63.8354 122.223C63.9571 121.714 63.9772 121.186 63.8944 120.67L63.6338 116.047L70.8452 117.637C70.8452 117.637 70.2695 121.665 70.2392 122.715C70.2023 124.262 70.3591 125.807 70.7059 127.314C71.1435 129.122 71.7946 130.87 72.6451 132.52C72.8465 132.944 73.1056 133.336 73.4147 133.687C73.8428 134.161 74.3046 134.602 74.7964 135.007Z" fill="#B16668"/>
<path d="M62.1673 124.833C62.6097 124.004 63.2278 123.495 63.652 122.776C64.0333 123.39 64.3309 124.053 64.5368 124.747C64.7428 125.398 65.3246 128.597 66.1608 131.139C66.7668 133.049 67.7849 134.043 69.1484 134.534C70.0043 134.844 70.9233 134.931 71.8209 134.786C73.4934 134.516 73.0753 133.306 73.0753 133.306C74.0679 134.277 75.1517 135.147 76.3113 135.904C76.5815 136.138 76.7505 136.47 76.7822 136.83C76.8139 137.189 76.7058 137.546 76.481 137.825C76.0205 138.243 74.4509 139.268 70.421 138.765C66.8517 138.317 65.9851 136.665 65.6336 135.922C65.2557 134.828 64.9837 133.699 64.8216 132.551C64.5966 131.293 64.149 130.087 63.5005 128.99C63.4267 128.859 63.3457 128.732 63.2581 128.609C62.9889 128.22 62.6996 127.845 62.3915 127.486C62.137 127.185 61.9431 127.044 61.8643 126.755C61.7302 126.098 61.838 125.415 62.1673 124.833Z" fill="#37474F"/>
<path d="M75.9478 130.967L76.5538 130.881C76.6083 129.039 76.5174 127.32 76.978 126.448L76.172 124.158L75.9478 130.967Z" fill="#263238"/>
<path d="M74.5781 122.5C74.6993 123.771 75.4023 125.085 75.4326 127.602C75.4843 128.671 75.4539 129.743 75.3417 130.807L75.9477 130.979L76.1719 124.158L74.5781 122.5Z" fill="#263238"/>
<path d="M88.7405 132.754C88.702 133.099 88.5579 133.423 88.3284 133.681C88.0133 133.92 87.0013 134.694 83.7713 134.473C80.5413 134.252 79.4142 133.478 78.3173 132.447C77.2204 131.415 76.9538 128.763 76.8023 127.473C76.571 125.623 75.7961 123.886 74.5783 122.488C74.4281 122.079 74.3986 121.636 74.4934 121.211C75.3449 121.229 76.1695 121.516 76.8519 122.032C77.5343 122.549 78.0403 123.268 78.2991 124.09C79.4263 127.099 80.305 130.586 82.9108 131.458C84.8204 132.033 86.7688 132.466 88.7405 132.754Z" fill="#263238"/>
<path d="M87.1224 129.868C88.1041 130.74 88.8495 131.133 88.7586 131.931C88.6677 132.729 87.8253 133.085 87.1527 133.282C85.5151 133.655 83.8146 133.64 82.1835 133.239C80.5534 132.926 78.8262 132.164 78.1657 130.623C77.9874 130.167 77.8633 129.691 77.796 129.205C77.5886 127.604 77.1939 126.033 76.6204 124.526C76.3902 123.885 76.0979 123.268 75.7478 122.684C75.2561 122.095 74.9185 121.39 74.7661 120.633C74.7055 120.019 75.1963 119.105 75.8326 118.177C76.5538 117.097 76.784 116.667 76.784 114.708L76.5538 110.613L83.7227 112.412C83.7227 112.412 83.1834 115.101 82.9531 117.164C82.7739 118.806 82.866 120.466 83.2258 122.076C83.6202 123.898 84.2306 125.665 85.0438 127.338C85.2293 127.768 85.4741 128.169 85.771 128.529C86.1903 129.007 86.6418 129.454 87.1224 129.868Z" fill="#B16668"/>
<path d="M74.8872 119.154C75.3368 118.543 75.8182 117.957 76.3295 117.398C76.7012 117.953 76.9892 118.561 77.1839 119.203C77.4748 120.038 77.8445 123.212 78.602 125.773C79.1716 127.694 80.1473 128.72 81.4926 129.254C82.3381 129.588 83.2533 129.7 84.1529 129.579C85.8376 129.358 85.4558 128.13 85.4558 128.13C86.419 129.133 87.4764 130.038 88.6131 130.832C88.8781 131.072 89.0388 131.409 89.0603 131.769C89.0819 132.129 88.9626 132.483 88.7282 132.754C88.2555 133.159 86.6557 134.141 82.6682 133.515C79.111 132.963 78.2929 131.286 77.9596 130.531C77.6182 129.427 77.3808 128.292 77.2506 127.142C77.0656 125.876 76.6549 124.655 76.0386 123.538C75.9598 123.396 75.881 123.267 75.8083 123.157C75.572 122.795 75.2871 122.396 74.972 122.003C74.6569 121.61 74.5357 121.548 74.463 121.26C74.3493 120.529 74.4999 119.781 74.8872 119.154Z" fill="#37474F"/>
<path d="M44.6599 71.3967C45.1479 69.3667 45.8956 67.4099 46.8839 65.576C53.7438 68.8793 56.3739 67.9154 63.2944 65.6681C66.5244 69.2784 71.1421 71.1266 75.5538 73.4107C79.9654 75.6947 84.971 78.0771 87.7344 80.9629C88.9827 82.2645 88.607 85.4389 87.9768 89.5159C87.1223 95.0419 83.7348 112.504 83.7348 112.504C79.0383 114.199 76.6143 111.387 76.6143 111.387C76.6143 111.387 75.8749 104.019 75.2811 98.075C74.6872 92.1315 76.7779 89.344 76.7779 89.344C76.7779 89.344 62.6763 83.9285 57.3435 82.811C48.4595 80.9199 43.5024 79.7717 44.6599 71.3967Z" fill="#37474F"/>
<path d="M34.4124 74.5711C35.0184 70.6415 38.9453 62.3955 39.6785 60.971C46.5384 64.2743 56.3859 67.9154 63.3125 65.6681C62.7156 70.0224 60.9554 74.1286 58.2221 77.5429C68.6514 85.267 70.7906 87.9809 73.3358 91.1614C74.0387 92.0517 74.7235 93.8814 74.3054 96.4295C73.4145 101.956 70.6694 119.203 70.6694 119.203C69.5223 119.637 68.2942 119.807 67.0742 119.701C65.8541 119.595 64.6727 119.215 63.6155 118.589C63.6155 118.589 62.7611 112.056 62.1672 106.112C61.5733 100.169 62.2035 97.2523 62.2035 97.2523C62.2035 97.2523 48.1201 90.8912 42.8115 88.4107C33.8124 84.26 33.7943 78.4946 34.4124 74.5711Z" fill="#455A64"/>
<path d="M46.9143 29.3562C46.9143 29.3562 39.206 30.2587 38.2788 30.6763C45.5144 35.8339 39.6544 47.3034 39.6544 47.3034L42.4299 56.1081C41.2785 59.1781 37.5455 63.1384 36.4062 67.9952C46.4477 74.1352 59.1737 72.9686 63.3066 65.6681C63.0945 62.1131 63.1248 56.7344 62.8036 54.4749C62.9006 52.811 62.7551 50.9014 62.943 48.1814C64.1326 47.0363 64.9323 45.5378 65.2264 43.9021C65.5205 42.2665 65.2938 40.5785 64.5792 39.0819C61.7067 33.3103 56.7739 29.1106 55.1983 29.1106L46.9143 29.3562Z" fill="#9854CB"/>
<path d="M44.5388 29.5956C44.5388 29.5956 39.6908 29.9947 38.2788 30.6762C36.8668 31.3578 34.5095 35.4839 36.6184 41.4827C38.7273 47.4814 40.6362 54.5179 40.418 55.9362C40.1998 57.3545 36.4063 65.576 36.4063 65.576C36.7975 66.2446 37.3236 66.8221 37.9502 67.2707C38.5767 67.7193 39.2896 68.0289 40.0423 68.1794L42.3572 61.2227L41.63 68.775C41.63 68.775 46.4174 69.7758 49.7322 69.4872C49.7322 69.4872 49.8049 45.136 44.5388 29.5956Z" fill="#9854CB"/>
<g opacity="0.5">
<path d="M44.5388 29.5956C44.5388 29.5956 39.6908 29.9947 38.2788 30.6762C36.8668 31.3578 34.5095 35.4839 36.6184 41.4827C38.7273 47.4814 40.6362 54.5179 40.418 55.9362C40.1998 57.3545 36.4063 65.576 36.4063 65.576C36.8016 66.2412 37.3289 66.816 37.9547 67.2641C38.5806 67.7123 39.2914 68.0239 40.0423 68.1794L42.3572 61.2227L41.63 68.775C41.63 68.775 46.4174 69.7758 49.7322 69.4872C49.7322 69.4872 49.8049 45.136 44.5388 29.5956Z" fill="#27104E"/>
</g>
<path d="M53.2349 0.854251C46.078 0.350771 38.8302 6.15921 40.3331 15.8543C41.3573 22.4486 45.1811 24.745 46.3931 24.7818L53.7197 25.0827C55.4104 19.8698 63.5793 19.219 65.3367 11.5133C67.0941 3.80759 60.416 1.35773 53.2349 0.854251Z" fill="#263238"/>
<path d="M39.4059 4.05938C36.5517 4.98652 35.1639 7.47936 34.364 10.2546C33.758 12.2993 33.4308 14.436 32.5824 16.3946C32.3196 17.0426 31.9531 17.6421 31.4976 18.1691C30.8355 18.7878 30.1055 19.3275 29.3221 19.7778C28.5393 20.2327 27.9068 20.912 27.5041 21.7303C27.0435 22.8723 28.1101 23.953 29.0312 24.5424C29.8919 25.0664 30.8584 25.3867 31.8584 25.4792C32.8585 25.5717 33.8662 25.434 34.8064 25.0766C35.7215 24.7486 36.5496 24.2112 37.2264 23.5063C37.9033 22.8013 38.4106 21.9478 38.709 21.0119C39.315 19.2313 39.315 17.506 39.2787 15.664C39.2423 13.822 39.3514 11.7589 40.1028 9.99062C40.354 9.32656 40.7717 8.74034 41.3148 8.28984C41.8661 7.92416 42.4633 7.63505 43.0904 7.43024C43.7235 7.22203 44.2738 6.81302 44.6599 6.26364C45.5871 4.71022 43.357 3.93044 42.2359 3.80764C41.2859 3.67753 40.3191 3.76353 39.4059 4.05938Z" fill="#263238"/>
<path d="M44.0903 4.55055L40.9875 3.09537C41.072 2.88416 41.1977 2.69245 41.3572 2.53178C41.5166 2.37111 41.7065 2.24481 41.9155 2.16048C42.1244 2.07615 42.348 2.03554 42.5728 2.04109C42.7977 2.04664 43.0191 2.09825 43.2237 2.19279C43.6363 2.40122 43.9553 2.76068 44.1162 3.19842C44.277 3.63615 44.2678 4.11947 44.0903 4.55055Z" fill="#263238"/>
<path d="M44.0964 4.11459L43.448 0.725308C43.6651 0.668265 43.8914 0.656722 44.1131 0.691383C44.3348 0.726044 44.5472 0.806182 44.7372 0.926889C44.9273 1.0476 45.091 1.20633 45.2184 1.39338C45.3458 1.58043 45.4342 1.79185 45.4781 2.01471C45.5549 2.47716 45.4547 2.95187 45.198 3.34206C44.9412 3.73225 44.5473 4.00854 44.0964 4.11459Z" fill="#263238"/>
<path d="M60.3006 7.2951C62.6701 8.63976 63.5791 11.8141 62.9125 19.1146C62.3489 25.2976 60.2643 26.6914 59.2341 27.0598C58.2039 27.4282 56.3131 27.0598 54.4648 26.587L54.2528 29.1719C54.2528 29.1719 57.2828 33.2243 56.9737 34.9128C56.6646 36.6013 52.4347 37.0864 50.138 35.2505C47.8413 33.4147 46.0172 30.0622 46.0172 30.0622L46.6535 21.4662C46.6535 21.4662 45.4779 22.467 43.7326 20.6864C42.2842 19.219 41.9146 16.8858 43.2114 15.7376C43.5417 15.467 43.9306 15.2797 44.3463 15.191C44.7619 15.1023 45.1924 15.1148 45.6023 15.2275C46.0123 15.3402 46.39 15.5498 46.7044 15.8391C47.0188 16.1285 47.261 16.4893 47.411 16.8919C50.0182 16.6556 52.5473 15.867 54.8345 14.5771C58.7311 12.4404 59.9552 9.8125 60.3006 7.2951Z" fill="#B16668"/>
<path d="M55.4408 16.6832C55.444 16.7896 55.4262 16.8955 55.3884 16.9948C55.3507 17.0941 55.2937 17.1847 55.2209 17.2614C55.148 17.338 55.0608 17.3992 54.9643 17.4412C54.8678 17.4832 54.764 17.5052 54.659 17.506C54.4581 17.4883 54.271 17.3949 54.1347 17.2443C53.9985 17.0937 53.9229 16.8968 53.9229 16.6924C53.9229 16.4881 53.9985 16.2912 54.1347 16.1406C54.271 15.99 54.4581 15.8966 54.659 15.8789C54.7625 15.8797 54.8648 15.9011 54.96 15.942C55.0553 15.9828 55.1417 16.0423 55.2143 16.117C55.2869 16.1917 55.3443 16.2801 55.3831 16.3773C55.422 16.4744 55.4415 16.5784 55.4408 16.6832Z" fill="#263238"/>
<path d="M56.0406 22.3443L57.7859 23.032C57.7461 23.1521 57.6826 23.2627 57.5992 23.3572C57.5159 23.4517 57.4144 23.5279 57.301 23.5813C57.1876 23.6348 57.0646 23.6642 56.9396 23.668C56.8146 23.6717 56.6902 23.6496 56.5739 23.603C56.3428 23.5023 56.1586 23.3157 56.0593 23.0814C55.9601 22.8472 55.9534 22.5833 56.0406 22.3443Z" fill="#9A4A4D"/>
<path d="M62.3187 15.1298L60.6038 14.3131C60.6512 14.2001 60.7204 14.0977 60.8072 14.012C60.8941 13.9263 60.9969 13.8589 61.1096 13.8138C61.2224 13.7686 61.3429 13.7467 61.4641 13.7491C61.5853 13.7516 61.7049 13.7784 61.8158 13.8281C62.0486 13.9381 62.2307 14.1346 62.3243 14.377C62.418 14.6193 62.416 14.8889 62.3187 15.1298Z" fill="#263238"/>
<path d="M61.5006 16.6832C61.4923 16.8373 61.4393 16.9855 61.3483 17.1093C61.2574 17.2331 61.1325 17.327 60.9892 17.3794C60.8459 17.4317 60.6905 17.4401 60.5425 17.4036C60.3946 17.3671 60.2604 17.2872 60.157 17.174C60.0535 17.0607 59.9852 16.9191 59.9606 16.7668C59.936 16.6145 59.9563 16.4582 60.0188 16.3175C60.0813 16.1767 60.1833 16.0578 60.3121 15.9754C60.4409 15.893 60.5908 15.8509 60.7431 15.8543C60.9516 15.8639 61.1479 15.9562 61.2897 16.1113C61.4314 16.2664 61.5072 16.4719 61.5006 16.6832Z" fill="#263238"/>
<path d="M57.8646 15.8542L57.4707 20.932L59.9553 20.3364L57.8646 15.8542Z" fill="#9A4A4D"/>
<path d="M54.465 26.587C52.5198 26.1879 48.5505 24.745 48.0293 23.0565C48.2278 23.894 48.6739 24.6502 49.308 25.2239C50.4472 26.3598 54.3802 27.8273 54.3802 27.8273L54.465 26.587Z" fill="#9A4A4D"/>
<path d="M46.084 29.1106L42.751 29.786C42.751 29.786 44.2963 36.54 48.411 37.768C52.5258 38.996 54.065 36.4172 54.065 36.4172C50.6076 35.0602 47.7658 32.4585 46.084 29.1106Z" fill="#9854CB"/>
<path opacity="0.7" d="M46.084 29.1106L42.751 29.786C42.751 29.786 44.2963 36.54 48.411 37.768C52.5258 38.996 54.065 36.4172 54.065 36.4172C50.6076 35.0602 47.7658 32.4585 46.084 29.1106Z" fill="white"/>
<path d="M54.2528 29.172C54.2528 29.172 56.5556 34.4646 54.0649 36.4233C54.0649 36.4233 57.3616 37.418 58.2403 36.0058C59.119 34.5936 57.5131 30.5719 56.1375 29.0246L54.2528 29.172Z" fill="#9854CB"/>
<path opacity="0.7" d="M54.2528 29.172C54.2528 29.172 56.5556 34.4646 54.0649 36.4233C54.0649 36.4233 57.3616 37.418 58.2403 36.0058C59.119 34.5936 57.5131 30.5719 56.1375 29.0246L54.2528 29.172Z" fill="white"/>
<path d="M40.7391 85.1196V85.7029C40.7367 85.9933 40.8086 86.2794 40.9477 86.5333C41.0868 86.7873 41.2884 87.0004 41.5329 87.1519L56.992 96.4663C57.2398 96.6113 57.5209 96.6876 57.8071 96.6876C58.0932 96.6876 58.3743 96.6113 58.6221 96.4663L87.4496 80.1585C87.7012 80.017 87.9116 79.8109 88.0594 79.5608C88.2073 79.3107 88.2875 79.0255 88.2919 78.734V78.3349L57.8101 95.5944L40.7391 85.1196Z" fill="#EBEBEB"/>
<path d="M88.292 78.3595L71.4816 68.1978C71.3334 68.1104 71.1651 68.0644 70.9937 68.0644C70.8223 68.0644 70.654 68.1104 70.5059 68.1978L40.8543 84.9723C40.8216 84.9918 40.7946 85.0196 40.7758 85.053C40.757 85.0864 40.7471 85.1242 40.7471 85.1626C40.7471 85.201 40.757 85.2388 40.7758 85.2722C40.7946 85.3056 40.8216 85.3334 40.8543 85.3529L57.8223 95.6129L88.292 78.3595Z" fill="#FAFAFA"/>
<path d="M57.6707 94.1332L48.605 88.6563L75.5659 73.4107L84.6802 78.863L57.6707 94.1332Z" fill="#E0E0E0"/>
<path d="M53.3926 79.2068L53.5623 79.3112L58.0042 81.9943L66.0398 77.4507L66.2095 77.3586L61.5978 74.5711L53.3926 79.2068Z" fill="#E0E0E0"/>
<path d="M53.562 79.3112L58.004 81.9944L66.0395 77.4508L61.5915 74.7614L53.562 79.3112Z" fill="#E6E6E6"/>
<path d="M57.8101 95.5945V96.6997C58.0958 96.7013 58.3773 96.6295 58.6282 96.4909L87.4556 80.1831C87.7072 80.0417 87.9176 79.8355 88.0655 79.5854C88.2134 79.3353 88.2935 79.0501 88.2979 78.7586V78.3595L57.8101 95.5945Z" fill="#EBEBEB"/>
<g style="mix-blend-mode:multiply" opacity="0.5">
<path d="M57.8101 95.5945V96.6997C58.0958 96.7013 58.3773 96.6295 58.6282 96.4909L87.4556 80.1831C87.7072 80.0417 87.9176 79.8355 88.0655 79.5854C88.2134 79.3353 88.2935 79.0501 88.2979 78.7586V78.3595L57.8101 95.5945Z" fill="#E0E0E0"/>
</g>
<path d="M58.2646 95.8462C58.5333 95.9571 58.8231 96.0052 59.1127 95.9872C59.4022 95.9691 59.684 95.8852 59.9372 95.7418L88.6374 79.5199C88.8858 79.3785 89.1007 79.1837 89.2671 78.9494C89.4336 78.715 89.5475 78.4466 89.6009 78.163L92.9824 59.3807C93.0369 59.0719 93.018 58.7543 92.9274 58.4543C92.8368 58.1543 92.677 57.8805 92.4612 57.6554L62.6339 74.5281C62.45 74.6329 62.2911 74.7774 62.1685 74.9515C62.046 75.1255 61.9628 75.3248 61.9249 75.5351L58.2646 95.8462Z" fill="#9854CB"/>
<g opacity="0.7">
<path d="M58.2646 95.8462C58.5333 95.9571 58.8231 96.0052 59.1127 95.9872C59.4022 95.9691 59.684 95.8852 59.9372 95.7418L88.6374 79.5199C88.8858 79.3785 89.1007 79.1837 89.2671 78.9494C89.4336 78.715 89.5475 78.4466 89.6009 78.163L92.9824 59.3807C93.0369 59.0719 93.018 58.7543 92.9274 58.4543C92.8368 58.1543 92.677 57.8805 92.4612 57.6554L62.6339 74.5281C62.45 74.6329 62.2911 74.7774 62.1685 74.9515C62.046 75.1255 61.9628 75.3248 61.9249 75.5351L58.2646 95.8462Z" fill="white"/>
</g>
<path d="M57.8101 95.5945L58.004 95.7112C58.0877 95.7622 58.1747 95.8074 58.2646 95.8462L61.9006 75.5228C61.9385 75.3125 62.0217 75.1133 62.1442 74.9392C62.2668 74.7652 62.4256 74.6206 62.6096 74.5159L92.4369 57.6432C92.3185 57.5256 92.1886 57.4207 92.0491 57.33L62.1611 74.2334C61.9767 74.3375 61.8174 74.4819 61.6947 74.656C61.5721 74.8302 61.4892 75.0298 61.4521 75.2404L57.8101 95.5945Z" fill="#FAFAFA"/>
<path d="M74.5479 78.7034C74.7721 77.4754 76.0811 75.7869 77.4688 75.0194C78.8566 74.2519 79.7959 74.6203 79.5716 75.879C79.3474 77.1377 78.0324 78.7893 76.6447 79.563C75.2569 80.3366 74.3176 79.9559 74.5479 78.7034Z" fill="#9854CB"/>
<path d="M43.2904 82.0865C41.7208 80.9936 31.7339 73.6379 27.7404 70.5003C23.5893 67.24 23.8438 66.2023 24.3468 63.8384C25.3406 59.1904 30.4674 44.3009 32.2248 39.96C34.164 35.1155 34.7761 31.8183 38.1939 31.1982C40.7997 33.2796 42.7753 38.2162 39.818 46.9227L34.2125 63.8875C34.2125 63.8875 38.4908 69.0267 41.3027 71.6915C44.1145 74.3562 46.6052 76.8552 48.6292 77.4569C50.4472 77.9973 52.5379 78.3657 53.1742 78.9551C54.7127 80.5375 56.146 82.2215 57.4647 83.996C58.0707 84.9907 59.4766 87.0046 57.4647 87.68C55.6467 88.294 54.1378 87.4713 52.6167 86.452C51.9152 85.9422 51.2491 85.3842 50.623 84.782C49.133 84.9503 47.6281 84.6479 46.3143 83.9162C45.1871 83.204 43.2904 82.0865 43.2904 82.0865Z" fill="#B16668"/>
<path d="M38.2788 30.6763C35.2488 31.1982 34.3701 33.3287 32.1219 39.2723C30.5402 43.4536 24.8499 61.6956 24.8499 61.6956C24.8499 61.6956 28.0132 65.3796 34.158 63.8753L41.2482 44.4237C41.2482 44.4237 43.5086 35.2137 38.2788 30.6763Z" fill="#9854CB"/>
<g opacity="0.6">
<path d="M38.2788 30.6763C35.2488 31.1982 34.3701 33.3287 32.1219 39.2723C30.5402 43.4536 24.8499 61.6956 24.8499 61.6956C24.8499 61.6956 28.0132 65.3796 34.158 63.8753L41.2482 44.4237C41.2482 44.4237 43.5086 35.2137 38.2788 30.6763Z" fill="#27104E"/>
</g>
</svg>
